<svg width="50" height="50" viewBox="0 0 50 50" fill="none" xmlns="http://www.w3.org/2000/svg">
<path d="M47.7849 18.5683C47.7849 18.9603 47.5399 19.4013 47.0499 19.8913L37.1519 29.5443L39.5039 43.2153V43.8033C39.5039 44.1626 39.4059 44.473 39.2099 44.7343C39.0139 44.9956 38.7444 45.1345 38.4014 45.1508C38.0584 45.1671 37.6909 45.061 37.2989 44.8323L24.9999 38.3643L12.7499 44.8323C12.3579 45.061 11.9822 45.1753 11.6229 45.1753C11.2636 45.1753 10.9859 45.0283 10.7899 44.7343C10.5939 44.4403 10.4959 44.13 10.4959 43.8033C10.4959 43.6726 10.5122 43.4766 10.5449 43.2153L12.8969 29.5443L2.94992 19.8913C2.49258 19.4013 2.26392 18.9603 2.26392 18.5683C2.26392 17.8823 2.77025 17.4576 3.78292 17.2943L17.5029 15.3343L23.6769 2.88829C24.0362 2.13696 24.4772 1.7613 24.9999 1.7613C25.5226 1.7613 25.9799 2.13696 26.3719 2.88829L32.4969 15.3343L46.2169 17.2943C47.2622 17.4576 47.7849 17.8823 47.7849 18.5683Z" fill="#D5A353"/>
</svg>
