<svg width="40" height="43" viewBox="0 0 40 43" fill="none" xmlns="http://www.w3.org/2000/svg">
<path d="M37.5915 25.4327C38.4408 25.8901 38.9798 26.5924 39.2085 27.5397C39.4372 28.4871 39.3228 29.3854 38.8655 30.2347L37.1505 33.2237C36.6605 34.0731 35.9418 34.6121 34.9945 34.8407C34.0472 35.0694 33.1652 34.9551 32.3485 34.4977L25.0475 30.3327V38.7117C25.0475 39.6591 24.7045 40.4757 24.0185 41.1617C23.3325 41.8477 22.5158 42.2071 21.5685 42.2397H18.0895C17.1422 42.2397 16.3092 41.8804 15.5905 41.1617C14.8718 40.4431 14.5288 39.6264 14.5615 38.7117V30.3327L7.30951 34.4977C6.46017 34.9877 5.56184 35.1021 4.61451 34.8407C3.66717 34.5794 2.96484 34.0404 2.50751 33.2237L0.743508 30.2347C0.286175 29.3854 0.171841 28.4871 0.400508 27.5397C0.629175 26.5924 1.18451 25.8901 2.06651 25.4327L9.31851 21.2187L2.06651 17.0047C1.21717 16.5474 0.661841 15.8451 0.400508 14.8977C0.139175 13.9504 0.253508 13.0521 0.743508 12.2027L2.50751 9.21375C2.99751 8.36441 3.69984 7.82541 4.61451 7.59675C5.52917 7.36808 6.42751 7.48241 7.30951 7.93975L14.5615 12.1047V3.72575C14.5615 2.77841 14.9045 1.96175 15.5905 1.27575C16.2765 0.589748 17.1095 0.230415 18.0895 0.197746H21.5685C22.5158 0.197746 23.3325 0.557079 24.0185 1.27575C24.7045 1.99442 25.0475 2.81108 25.0475 3.72575V12.1047L32.3485 7.93975C33.1978 7.44975 34.0798 7.33541 34.9945 7.59675C35.9092 7.85808 36.6278 8.39708 37.1505 9.21375L38.8655 12.2027C39.3555 13.0521 39.4698 13.9504 39.2085 14.8977C38.9472 15.8451 38.4082 16.5474 37.5915 17.0047L30.3395 21.2187L37.5915 25.4327Z" fill="#D5A353"/>
</svg>
