<svg width="46" height="45" viewBox="0 0 46 45" fill="none" xmlns="http://www.w3.org/2000/svg">
<path d="M31.3789 27.3193L39.7089 19.1853L28.1939 17.5193L22.9999 7.08229L17.8549 17.5193L6.29092 19.1853L14.6699 27.3193L12.6609 38.8343L22.9999 33.3953L33.3389 38.8343L31.3789 27.3193ZM45.7849 17.5683C45.7849 17.9603 45.5399 18.4013 45.0499 18.8913L35.1519 28.5443L37.5039 42.2153V42.8033C37.5039 43.718 37.1283 44.1753 36.3769 44.1753C36.0502 44.1753 35.6909 44.061 35.2989 43.8323L22.9999 37.3643L10.7499 43.8323C10.3579 44.061 9.98225 44.1753 9.62292 44.1753C9.26358 44.1753 8.98592 44.0283 8.78992 43.7343C8.59392 43.4403 8.49592 43.13 8.49592 42.8033C8.49592 42.6726 8.51225 42.4766 8.54492 42.2153L10.8969 28.5443L0.949916 18.8913C0.492583 18.4013 0.263916 17.9603 0.263916 17.5683C0.263916 16.8823 0.770249 16.4576 1.78292 16.2943L15.5029 14.3343L21.6769 1.88829C22.0362 1.13696 22.4772 0.761295 22.9999 0.761295C23.5226 0.761295 23.9799 1.13696 24.3719 1.88829L30.4969 14.3343L44.2169 16.2943C45.2622 16.4576 45.7849 16.8823 45.7849 17.5683Z" fill="#D5A353"/>
</svg>
