<svg width="50" height="48" viewBox="0 0 50 48" fill="none" xmlns="http://www.w3.org/2000/svg">
<path d="M48.716 3.74128C36.3353 2.14062 23.9873 2.00995 11.672 3.34928L11.133 2.66328C10.6103 2.10795 9.9815 1.66695 9.2465 1.34028C8.5115 1.01361 7.752 0.850281 6.968 0.850281C5.498 0.850281 4.23217 1.34028 3.1705 2.32028C2.10883 3.30028 1.49633 4.52528 1.333 5.99528C0.777667 11.7446 0.5 17.8859 0.5 24.4193C0.5 30.9526 0.777667 37.0939 1.333 42.8433C1.49633 44.3133 2.10883 45.5383 3.1705 46.5183C4.23217 47.4983 5.498 47.9883 6.968 47.9883C7.752 47.9883 8.5115 47.8249 9.2465 47.4983C9.9815 47.1716 10.6103 46.7224 11.133 46.1508C11.6557 45.5791 12.0477 44.9094 12.309 44.1418C12.5703 43.3741 12.6683 42.5983 12.603 41.8143C12.1457 36.6529 11.9007 31.2466 11.868 25.5953C11.8353 19.8133 12.0313 14.3416 12.456 9.18028C14.7753 9.01695 17.013 8.91895 19.169 8.88628L20.639 12.8063C20.7043 12.9696 20.8105 13.1084 20.9575 13.2228C21.1045 13.3371 21.276 13.3943 21.472 13.3943C30.6187 13.0023 39.6347 13.3616 48.52 14.4723H48.618C48.8793 14.4723 49.0917 14.3988 49.255 14.2518C49.4183 14.1048 49.5 13.8843 49.5 13.5903V4.62328C49.5 4.39462 49.4265 4.19862 49.2795 4.03528C49.1325 3.87195 48.9447 3.77395 48.716 3.74128ZM10.251 42.0103C10.349 42.9903 10.0713 43.8396 9.418 44.5583C8.76467 45.2769 7.948 45.6363 6.968 45.6363C6.11867 45.6363 5.3755 45.3504 4.7385 44.7788C4.1015 44.2071 3.75033 43.4966 3.685 42.6473C3.16233 36.9306 2.901 30.8546 2.901 24.4193C2.901 17.9839 3.16233 11.9079 3.685 6.19128C3.75033 5.34195 4.1015 4.63145 4.7385 4.05978C5.3755 3.48812 6.11867 3.20228 6.968 3.20228C7.948 3.20228 8.76467 3.56161 9.418 4.28028C10.0713 4.99895 10.349 5.84828 10.251 6.82828C9.761 12.3489 9.516 18.2126 9.516 24.4193C9.516 30.6259 9.761 36.4896 10.251 42.0103ZM19.757 7.12228C17.6663 7.12228 15.2817 7.20395 12.603 7.36728V7.02428C12.6683 6.33828 12.6193 5.66862 12.456 5.01528C24.2813 3.83928 36.0413 3.95362 47.736 5.35828V10.1603C43.9467 9.47428 38.818 9.09861 32.35 9.03328C28.626 9.00061 24.902 9.06595 21.178 9.22928L20.59 7.66128C20.5247 7.49795 20.4185 7.35912 20.2715 7.24478C20.1245 7.13045 19.953 7.08961 19.757 7.12228ZM22.06 11.5813L21.815 10.9933C25.4737 10.8299 29.2793 10.7646 33.232 10.7973C39.3733 10.8953 44.208 11.2873 47.736 11.9733V12.6103C39.2427 11.5649 30.684 11.222 22.06 11.5813ZM6.821 7.95528C7.14767 7.95528 7.42533 7.84095 7.654 7.61228C7.88267 7.38362 7.997 7.12228 7.997 6.82828C7.997 6.53428 7.88267 6.24028 7.654 5.94628C7.36 5.71762 7.066 5.60328 6.772 5.60328C6.478 5.60328 6.21667 5.71762 5.988 5.94628C5.75933 6.17495 5.645 6.46078 5.645 6.80378C5.645 7.14678 5.75117 7.42445 5.9635 7.63678C6.17583 7.84912 6.46167 7.95528 6.821 7.95528ZM8.291 11.4833C8.12767 11.32 7.91533 11.2383 7.654 11.2383C7.39267 11.2383 7.18033 11.32 7.017 11.4833L6.38 12.1203L5.694 11.4833C5.53067 11.32 5.3265 11.2383 5.0815 11.2383C4.8365 11.2383 4.63233 11.32 4.469 11.4833C4.30567 11.6466 4.224 11.8508 4.224 12.0958C4.224 12.3408 4.30567 12.5449 4.469 12.7083L5.106 13.3943L4.469 14.0313C4.30567 14.1946 4.224 14.4069 4.224 14.6683C4.224 14.9296 4.30567 15.1419 4.469 15.3053C4.63233 15.4686 4.8365 15.5503 5.0815 15.5503C5.3265 15.5503 5.53067 15.4686 5.694 15.3053L6.38 14.6193L7.017 15.3053C7.24567 15.4686 7.458 15.5503 7.654 15.5503C7.85 15.5503 8.046 15.4686 8.242 15.3053C8.438 15.1419 8.536 14.9296 8.536 14.6683C8.536 14.4069 8.45433 14.1946 8.291 14.0313L7.605 13.3943L8.291 12.7083C8.45433 12.5449 8.536 12.3408 8.536 12.0958C8.536 11.8508 8.45433 11.6466 8.291 11.4833ZM8.291 33.5333C8.12767 33.3699 7.91533 33.2883 7.654 33.2883C7.39267 33.2883 7.18033 33.3699 7.017 33.5333L6.38 34.2193L5.694 33.5333C5.53067 33.3699 5.3265 33.2883 5.0815 33.2883C4.8365 33.2883 4.63233 33.3699 4.469 33.5333C4.30567 33.6966 4.224 33.9089 4.224 34.1703C4.224 34.4316 4.30567 34.6439 4.469 34.8073L5.106 35.4443L4.469 36.1303C4.30567 36.2936 4.224 36.4978 4.224 36.7428C4.224 36.9878 4.30567 37.2001 4.469 37.3798C4.63233 37.5594 4.84467 37.6493 5.106 37.6493C5.36733 37.6493 5.56333 37.5513 5.694 37.3553L6.38 36.7183L7.017 37.3553C7.213 37.5513 7.42533 37.6493 7.654 37.6493C7.88267 37.6493 8.08683 37.5594 8.2665 37.3798C8.44617 37.2001 8.536 36.9878 8.536 36.7428C8.536 36.4978 8.45433 36.2936 8.291 36.1303L7.605 35.4443L8.291 34.8073C8.45433 34.6439 8.536 34.4316 8.536 34.1703C8.536 33.9089 8.45433 33.6966 8.291 33.5333Z" fill="#D5A353"/>
</svg>
