<svg width="43" height="43" viewBox="0 0 43 43" fill="none" xmlns="http://www.w3.org/2000/svg">
<path d="M27.9825 37.8924C27.2311 33.5151 25.9571 28.9744 24.1605 24.2704H24.1115L24.0625 24.3194C23.7685 24.4174 23.3765 24.5644 22.8865 24.7604C22.3965 24.9564 21.4818 25.3974 20.1425 26.0834C18.8031 26.7694 17.5455 27.5207 16.3695 28.3374C15.1935 29.1541 14.0011 30.1994 12.7925 31.4734C11.5838 32.7474 10.6528 34.0867 9.99947 35.4914L9.55847 35.1974C12.9231 37.9414 16.7451 39.3134 21.0245 39.3134C23.4091 39.3134 25.7285 38.8397 27.9825 37.8924ZM22.9355 21.2814C22.5761 20.3994 22.1025 19.3867 21.5145 18.2434C15.8305 19.9421 9.68914 20.7914 3.09047 20.7914V21.3794C3.09047 23.6334 3.48247 25.7894 4.26647 27.8474C5.05047 29.9054 6.17747 31.7347 7.64747 33.3354C8.56214 31.7347 9.68914 30.2157 11.0285 28.7784C12.3678 27.3411 13.6745 26.2141 14.9485 25.3974C16.2225 24.5807 17.4148 23.8457 18.5255 23.1924C19.6361 22.5391 20.5345 22.0981 21.2205 21.8694L22.2495 21.5264C22.3148 21.4937 22.4291 21.4611 22.5925 21.4284C22.7558 21.3957 22.8701 21.3467 22.9355 21.2814ZM20.0445 15.4994C17.8558 11.6121 15.6181 8.16573 13.3315 5.16039C10.8161 6.33639 8.69281 8.03506 6.96147 10.2564C5.23014 12.4777 4.05414 14.9604 3.43347 17.7044C8.95414 17.7044 14.4911 16.9694 20.0445 15.4994ZM38.7135 24.2214C34.8915 23.1434 31.1675 22.8821 27.5415 23.4374C29.1421 27.7821 30.3018 32.0614 31.0205 36.2754C33.0458 34.9034 34.7445 33.1721 36.1165 31.0814C37.4885 28.9907 38.3541 26.7041 38.7135 24.2214ZM32.8335 7.90439C29.4688 4.93172 25.5325 3.44539 21.0245 3.44539C19.6198 3.44539 18.1988 3.60873 16.7615 3.93539C19.1461 7.03872 21.3838 10.5341 23.4745 14.4214C24.7485 13.9314 25.9408 13.3761 27.0515 12.7554C28.1621 12.1347 29.0441 11.5794 29.6975 11.0894C30.3508 10.5994 30.9388 10.0767 31.4615 9.52139C31.9841 8.96606 32.3271 8.59039 32.4905 8.39439L32.8335 7.90439ZM38.9585 21.1834C38.8931 16.9694 37.5375 13.2291 34.8915 9.96239L34.8425 10.0114C34.6791 10.2401 34.4995 10.4524 34.3035 10.6484L33.1275 11.8734C32.5395 12.4941 31.8861 13.0494 31.1675 13.5394C30.4488 14.0294 29.5505 14.6174 28.4725 15.3034C27.3945 15.9894 26.1858 16.5774 24.8465 17.0674L26.0715 19.6644L26.2185 20.1544C26.2838 20.3504 26.3655 20.4974 26.4635 20.5954L28.4725 20.3994C29.1585 20.3341 29.8281 20.3177 30.4815 20.3504C31.1348 20.3831 31.7718 20.3994 32.3925 20.3994C33.0131 20.3994 33.5848 20.4321 34.1075 20.4974C34.6301 20.5627 35.1528 20.6117 35.6755 20.6444C36.1981 20.6771 36.6391 20.7424 36.9985 20.8404C37.3578 20.9384 37.6845 20.9874 37.9785 20.9874C38.2725 20.9874 38.5011 21.0364 38.6645 21.1344L38.9585 21.1834ZM41.9965 21.3794C41.9965 25.2014 41.0655 28.7131 39.2035 31.9144C37.3415 35.1157 34.7935 37.6637 31.5595 39.5584C28.3255 41.4531 24.8138 42.4004 21.0245 42.4004C17.2351 42.4004 13.7071 41.4531 10.4405 39.5584C7.17381 37.6637 4.64214 35.1157 2.84547 31.9144C1.04881 28.7131 0.101473 25.2014 0.00347266 21.3794C-0.0945273 17.5574 0.852806 14.0457 2.84547 10.8444C4.83814 7.64306 7.36981 5.09506 10.4405 3.20039C13.5111 1.30573 17.0391 0.358391 21.0245 0.358391C25.0098 0.358391 28.5215 1.30573 31.5595 3.20039C34.5975 5.09506 37.1455 7.64306 39.2035 10.8444C41.2615 14.0457 42.1925 17.5574 41.9965 21.3794Z" fill="#D5A353"/>
</svg>
