<svg width="50" height="45" viewBox="0 0 50 45" fill="none" xmlns="http://www.w3.org/2000/svg">
<path d="M5.106 32.3172C4.224 33.1992 3.783 34.2772 3.783 35.5512C3.783 36.8252 4.23217 37.9114 5.1305 38.8097C6.02883 39.7081 7.10683 40.1572 8.3645 40.1572C9.62217 40.1572 10.7002 39.7081 11.5985 38.8097C12.4968 37.9114 12.946 36.8252 12.946 35.5512C12.946 34.2772 12.505 33.1992 11.623 32.3172C10.741 31.4352 9.663 30.9861 8.389 30.9697C7.115 30.9534 6.02067 31.4026 5.106 32.3172ZM10.496 37.6582C9.908 38.2789 9.1975 38.5892 8.3645 38.5892C7.5315 38.5892 6.821 38.2871 6.233 37.6827C5.645 37.0784 5.351 36.3597 5.351 35.5267C5.351 34.6937 5.645 33.9832 6.233 33.3952C6.821 32.8072 7.5315 32.5132 8.3645 32.5132C9.1975 32.5132 9.908 32.8072 10.496 33.3952C11.084 33.9832 11.378 34.6937 11.378 35.5267C11.378 36.3597 11.084 37.0702 10.496 37.6582ZM43.816 32.3172C42.9013 31.4026 41.8152 30.9452 40.5575 30.9452C39.2998 30.9452 38.2218 31.3944 37.3235 32.2927C36.4252 33.1911 35.976 34.2772 35.976 35.5512C35.976 36.8252 36.417 37.9032 37.299 38.7852C38.279 39.6999 39.3733 40.1572 40.582 40.1572C41.17 40.1572 41.7498 40.0347 42.3215 39.7897C42.8932 39.5447 43.3913 39.2099 43.816 38.7852C44.698 37.9032 45.139 36.8252 45.139 35.5512C45.139 34.2772 44.698 33.1992 43.816 32.3172ZM42.689 37.6582C42.101 38.2789 41.3905 38.5892 40.5575 38.5892C39.7245 38.5892 39.014 38.2871 38.426 37.6827C37.838 37.0784 37.544 36.3597 37.544 35.5267C37.544 34.6937 37.838 33.9832 38.426 33.3952C39.014 32.8072 39.7245 32.5132 40.5575 32.5132C41.3905 32.5132 42.101 32.8072 42.689 33.3952C43.277 33.9832 43.571 34.6937 43.571 35.5267C43.571 36.3597 43.277 37.0702 42.689 37.6582ZM49.255 43.1462L46.658 40.5492C47.834 39.0792 48.422 37.4132 48.422 35.5512C48.422 34.5059 48.226 33.5014 47.834 32.5377C47.442 31.5741 46.8703 30.7166 46.119 29.9652C45.1717 29.0179 44.0692 28.3646 42.8115 28.0052C41.5538 27.6459 40.288 27.5887 39.014 27.8337C37.74 28.0787 36.5967 28.6259 35.584 29.4752L28.087 21.9782L43.375 1.59424C43.5057 1.46357 43.5628 1.29207 43.5465 1.07974C43.5302 0.867405 43.4485 0.68774 43.3015 0.540741C43.1545 0.393738 42.9748 0.32024 42.7625 0.32024C42.5502 0.32024 42.3623 0.401905 42.199 0.565239L24.461 18.3522L6.723 0.565239C6.59233 0.401905 6.42083 0.32024 6.2085 0.32024C5.99617 0.32024 5.80833 0.393738 5.645 0.540741C5.48167 0.68774 5.39183 0.867405 5.3755 1.07974C5.35917 1.29207 5.41633 1.46357 5.547 1.59424L20.835 21.9782L13.338 29.4752C12.3253 28.6259 11.182 28.0787 9.908 27.8337C8.634 27.5887 7.36817 27.6459 6.1105 28.0052C4.85283 28.3646 3.75033 29.0179 2.803 29.9652C2.05167 30.7166 1.48 31.5741 1.088 32.5377C0.696 33.5014 0.5 34.5059 0.5 35.5512C0.5 36.5966 0.696 37.5929 1.088 38.5402C1.48 39.4876 2.05167 40.3369 2.803 41.0882C3.55433 41.8396 4.41183 42.4112 5.3755 42.8032C6.33917 43.1952 7.34367 43.3912 8.389 43.3912C9.43433 43.3912 10.4307 43.1952 11.378 42.8032C12.3253 42.4112 13.1747 41.8396 13.926 41.0882C14.6773 40.3369 15.249 39.4876 15.641 38.5402C16.033 37.5929 16.229 36.5966 16.229 35.5512C16.229 33.8199 15.7063 32.2519 14.661 30.8472L14.808 30.7982C16.2453 30.0796 17.7153 29.7202 19.218 29.7202C19.904 29.7202 20.6553 29.8019 21.472 29.9652C21.6353 30.0306 21.7905 30.0387 21.9375 29.9897C22.0845 29.9407 22.207 29.8509 22.305 29.7202L24.461 26.7802L26.617 29.7202C26.715 29.8509 26.8375 29.9407 26.9845 29.9897C27.1315 30.0387 27.2867 30.0306 27.45 29.9652C28.5933 29.7039 29.7367 29.6467 30.88 29.7937C32.0233 29.9407 33.1013 30.2756 34.114 30.7982L34.261 30.8472C33.2157 32.2519 32.693 33.8199 32.693 35.5512C32.693 36.5966 32.889 37.5929 33.281 38.5402C33.673 39.4876 34.2447 40.3369 34.996 41.0882C35.7473 41.8396 36.6048 42.4112 37.5685 42.8032C38.5322 43.1952 39.5367 43.3912 40.582 43.3912C42.4767 43.3912 44.1263 42.8032 45.531 41.6272L48.177 44.2732C48.3077 44.4039 48.4873 44.4692 48.716 44.4692C48.9447 44.4692 49.1325 44.3957 49.2795 44.2487C49.4265 44.1017 49.5 43.9139 49.5 43.6852C49.5 43.4566 49.4183 43.2769 49.255 43.1462ZM12.456 39.6182C11.7047 40.3696 10.839 40.8677 9.859 41.1127C8.879 41.3577 7.89083 41.3577 6.8945 41.1127C5.89817 40.8677 5.02433 40.3696 4.273 39.6182C3.75033 39.0956 3.342 38.4749 3.048 37.7562C2.754 37.0376 2.607 36.3026 2.607 35.5512C2.607 33.9506 3.16233 32.5949 4.273 31.4842C4.82833 30.9289 5.46533 30.5042 6.184 30.2102C6.90267 29.9162 7.63767 29.7692 8.389 29.7692C9.14033 29.7692 9.86717 29.9162 10.5695 30.2102C11.2718 30.5042 11.9007 30.9289 12.456 31.4842C13.5667 32.5949 14.122 33.9506 14.122 35.5512C14.122 36.3026 13.975 37.0376 13.681 37.7562C13.387 38.4749 12.9787 39.0956 12.456 39.6182ZM35.486 9.53224L26.96 20.8512L25.588 19.4302L35.486 9.53224ZM21.325 28.3482C19.7243 28.0542 18.1237 28.1032 16.523 28.4952L21.766 23.2522L23.481 25.5062L21.325 28.3482ZM29.704 28.1522C28.92 28.1522 28.2177 28.2176 27.597 28.3482L13.436 9.53224L32.399 28.4952C31.5823 28.2666 30.684 28.1522 29.704 28.1522ZM36.466 39.6182C35.9433 39.0956 35.535 38.4749 35.241 37.7562C34.947 37.0376 34.8 36.3026 34.8 35.5512C34.8 33.9506 35.3553 32.5949 36.466 31.4842C37.0213 30.9289 37.6583 30.5042 38.377 30.2102C39.0957 29.9162 39.8307 29.7692 40.582 29.7692C42.15 29.7692 43.4975 30.3327 44.6245 31.4597C45.7515 32.5867 46.315 33.9506 46.315 35.5512C46.315 36.3026 46.168 37.0376 45.874 37.7562C45.58 38.4749 45.1717 39.0956 44.649 39.6182C43.8977 40.3696 43.032 40.8677 42.052 41.1127C41.072 41.3577 40.0838 41.3577 39.0875 41.1127C38.0912 40.8677 37.2173 40.3696 36.466 39.6182Z" fill="#D5A353"/>
</svg>
